HIERARCHY
ROOT __0
{
	OFFSET 0.0 0.0 0.0
	CHANNELS 0
	JOINT spider.body
	{
		OFFSET -0.000000 -0.024174 -0.001223
		CHANNELS 6 Xposition Yposition Zposition Zrotation Yrotation Xrotation
		JOINT Bone.401.R
		{
			OFFSET -0.036506 -0.002721 0.001566
			CHANNELS 6 Xposition Yposition Zposition Zrotation Yrotation Xrotation
			JOINT Bone.402.R
			{
				OFFSET -0.128547 0.119098 0.000000
				CHANNELS 3 Zrotation Yrotation Xrotation
				JOINT Bone.403.R
				{
					OFFSET -0.092430 0.086526 0.000000
					CHANNELS 3 Zrotation Yrotation Xrotation
					End Site
					{
						OFFSET -0.132475 0.126096 0.000000
					}
				}
			}
		}
		JOINT Bone.301.R
		{
			OFFSET -0.033945 -0.026202 0.001566
			CHANNELS 6 Xposition Yposition Zposition Zrotation Yrotation Xrotation
			JOINT Bone.302.R
			{
				OFFSET -0.112551 0.040759 0.000000
				CHANNELS 3 Zrotation Yrotation Xrotation
				JOINT Bone.303.R
				{
					OFFSET -0.105146 0.041271 0.000000
					CHANNELS 3 Zrotation Yrotation Xrotation
					End Site
					{
						OFFSET -0.111726 0.043966 0.000000
					}
				}
			}
		}
		JOINT Bone.201.R
		{
			OFFSET -0.043952 -0.045754 0.001566
			CHANNELS 6 Xposition Yposition Zposition Zrotation Yrotation Xrotation
			JOINT Bone.202.R
			{
				OFFSET -0.110887 -0.016888 0.000000
				CHANNELS 3 Zrotation Yrotation Xrotation
				JOINT Bone.203.R
				{
					OFFSET -0.090207 -0.014155 0.000000
					CHANNELS 3 Zrotation Yrotation Xrotation
					End Site
					{
						OFFSET -0.126114 -0.017918 0.000000
					}
				}
			}
		}
		JOINT Bone.101.R
		{
			OFFSET -0.047210 -0.064721 0.001566
			CHANNELS 6 Xposition Yposition Zposition Zrotation Yrotation Xrotation
			JOINT Bone.102.R
			{
				OFFSET -0.056300 -0.129128 0.000000
				CHANNELS 3 Zrotation Yrotation Xrotation
				JOINT Bone.103.R
				{
					OFFSET -0.038596 -0.100772 0.000000
					CHANNELS 3 Zrotation Yrotation Xrotation
					End Site
					{
						OFFSET -0.057992 -0.137053 0.000000
					}
				}
			}
		}
		JOINT spider.too.R
		{
			OFFSET -0.015977 -0.078602 0.000000
			CHANNELS 6 Xposition Yposition Zposition Zrotation Yrotation Xrotation
			End Site
			{
				OFFSET -0.009129 -0.040940 -0.032086
			}
		}
		JOINT spider.too.L
		{
			OFFSET 0.015977 -0.078602 0.000000
			CHANNELS 6 Xposition Yposition Zposition Zrotation Yrotation Xrotation
			End Site
			{
				OFFSET 0.009129 -0.040940 -0.032086
			}
		}
		JOINT Bone.401.L
		{
			OFFSET 0.036506 -0.002721 0.001566
			CHANNELS 6 Xposition Yposition Zposition Zrotation Yrotation Xrotation
			JOINT Bone.402.L
			{
				OFFSET 0.128547 0.119098 0.000000
				CHANNELS 3 Zrotation Yrotation Xrotation
				JOINT Bone.403.L
				{
					OFFSET 0.092430 0.086526 0.000000
					CHANNELS 3 Zrotation Yrotation Xrotation
					End Site
					{
						OFFSET 0.132475 0.126096 0.000000
					}
				}
			}
		}
		JOINT Bone.301.L
		{
			OFFSET 0.033945 -0.026202 0.001566
			CHANNELS 6 Xposition Yposition Zposition Zrotation Yrotation Xrotation
			JOINT Bone.302.L
			{
				OFFSET 0.112551 0.040759 0.000000
				CHANNELS 3 Zrotation Yrotation Xrotation
				JOINT Bone.303.L
				{
					OFFSET 0.105146 0.041271 0.000000
					CHANNELS 3 Zrotation Yrotation Xrotation
					End Site
					{
						OFFSET 0.111726 0.043966 0.000000
					}
				}
			}
		}
		JOINT Bone.201.L
		{
			OFFSET 0.043952 -0.045754 0.001566
			CHANNELS 6 Xposition Yposition Zposition Zrotation Yrotation Xrotation
			JOINT Bone.202.L
			{
				OFFSET 0.110887 -0.016888 0.000000
				CHANNELS 3 Zrotation Yrotation Xrotation
				JOINT Bone.203.L
				{
					OFFSET 0.090207 -0.014155 0.000000
					CHANNELS 3 Zrotation Yrotation Xrotation
					End Site
					{
						OFFSET 0.126114 -0.017918 0.000000
					}
				}
			}
		}
		JOINT Bone.101.L
		{
			OFFSET 0.047211 -0.064721 0.001566
			CHANNELS 6 Xposition Yposition Zposition Zrotation Yrotation Xrotation
			JOINT Bone.102.L
			{
				OFFSET 0.056300 -0.129128 0.000000
				CHANNELS 3 Zrotation Yrotation Xrotation
				JOINT Bone.103.L
				{
					OFFSET 0.038596 -0.100772 0.000000
					CHANNELS 3 Zrotation Yrotation Xrotation
					End Site
					{
						OFFSET 0.057992 -0.137053 0.000000
					}
				}
			}
		}
		JOINT spider.tail
		{
			OFFSET 0.000000 0.000000 0.000000
			CHANNELS 6 Xposition Yposition Zposition Zrotation Yrotation Xrotation
			End Site
			{
				OFFSET 0.000000 0.096031 0.000000
			}
		}
	}
	JOINT Bone.1tg.L
	{
		OFFSET 0.200098 -0.455849 0.000342
		CHANNELS 6 Xposition Yposition Zposition Zrotation Yrotation Xrotation
		End Site
		{
			OFFSET 0.019417 -0.050483 0.000000
		}
	}
	JOINT Bone.1tg.R
	{
		OFFSET -0.200098 -0.455849 0.000342
		CHANNELS 6 Xposition Yposition Zposition Zrotation Yrotation Xrotation
		End Site
		{
			OFFSET -0.019417 -0.050483 0.000000
		}
	}
	JOINT Bone.2tg.L
	{
		OFFSET 0.371161 -0.118890 0.000342
		CHANNELS 6 Xposition Yposition Zposition Zrotation Yrotation Xrotation
		End Site
		{
			OFFSET 0.046600 -0.007767 0.000000
		}
	}
	JOINT Bone.2tg.R
	{
		OFFSET -0.371161 -0.118890 0.000342
		CHANNELS 6 Xposition Yposition Zposition Zrotation Yrotation Xrotation
		End Site
		{
			OFFSET -0.046600 -0.007767 0.000000
		}
	}
	JOINT Bone.3tg.L
	{
		OFFSET 0.363367 0.075620 0.000342
		CHANNELS 6 Xposition Yposition Zposition Zrotation Yrotation Xrotation
		End Site
		{
			OFFSET 0.052425 0.021358 0.000000
		}
	}
	JOINT Bone.3tg.R
	{
		OFFSET -0.363367 0.075620 0.000342
		CHANNELS 6 Xposition Yposition Zposition Zrotation Yrotation Xrotation
		End Site
		{
			OFFSET -0.052425 0.021358 0.000000
		}
	}
	JOINT Bone.4tg.L
	{
		OFFSET 0.389958 0.304826 0.000342
		CHANNELS 6 Xposition Yposition Zposition Zrotation Yrotation Xrotation
		End Site
		{
			OFFSET 0.040853 0.035531 0.000000
		}
	}
	JOINT Bone.4tg.R
	{
		OFFSET -0.389958 0.304826 0.000342
		CHANNELS 6 Xposition Yposition Zposition Zrotation Yrotation Xrotation
		End Site
		{
			OFFSET -0.040853 0.035531 0.000000
		}
	}
	JOINT Bone.4pl.L
	{
		OFFSET 0.072792 -0.016441 0.200946
		CHANNELS 6 Xposition Yposition Zposition Zrotation Yrotation Xrotation
		End Site
		{
			OFFSET 0.000000 0.000000 0.023280
		}
	}
	JOINT Bone.4pl.R
	{
		OFFSET -0.072792 -0.016441 0.200946
		CHANNELS 6 Xposition Yposition Zposition Zrotation Yrotation Xrotation
		End Site
		{
			OFFSET 0.000000 0.000000 0.023280
		}
	}
	JOINT Bone.3pl.L
	{
		OFFSET 0.080552 -0.033891 0.200946
		CHANNELS 6 Xposition Yposition Zposition Zrotation Yrotation Xrotation
		End Site
		{
			OFFSET 0.000000 0.000000 0.023280
		}
	}
	JOINT Bone.3pl.R
	{
		OFFSET -0.080552 -0.033891 0.200946
		CHANNELS 6 Xposition Yposition Zposition Zrotation Yrotation Xrotation
		End Site
		{
			OFFSET 0.000000 0.000000 0.023280
		}
	}
	JOINT Bone.2pl.L
	{
		OFFSET 0.084345 -0.075934 0.200946
		CHANNELS 6 Xposition Yposition Zposition Zrotation Yrotation Xrotation
		End Site
		{
			OFFSET 0.000000 0.000000 0.023280
		}
	}
	JOINT Bone.2pl.R
	{
		OFFSET -0.084345 -0.075934 0.200946
		CHANNELS 6 Xposition Yposition Zposition Zrotation Yrotation Xrotation
		End Site
		{
			OFFSET 0.000000 0.000000 0.023280
		}
	}
	JOINT Bone.1pl.L
	{
		OFFSET 0.077155 -0.105007 0.200946
		CHANNELS 6 Xposition Yposition Zposition Zrotation Yrotation Xrotation
		End Site
		{
			OFFSET 0.000000 0.000000 0.023280
		}
	}
	JOINT Bone.1pl.R
	{
		OFFSET -0.077155 -0.105007 0.200946
		CHANNELS 6 Xposition Yposition Zposition Zrotation Yrotation Xrotation
		End Site
		{
			OFFSET 0.000000 0.000000 0.023280
		}
	}
}
MOTION
Frames: 4
Frame Time: 0.041667
-0.000000 -0.024174 0.058777 0.000000 -0.000000 0.000000 -0.036506 -0.002721 0.001565 -43.257057 61.770837 -64.947360 -23.734351 -0.000000 0.000001 -37.217800 -0.000003 0.000002 -0.033945 -0.026202 0.001565 -19.826755 58.255223 -89.461367 -46.172034 0.000002 -0.000000 -65.729841 0.000000 0.000000 -0.043952 -0.045754 0.001565 9.020093 25.791783 -90.211158 -35.557073 0.000000 0.000001 -71.957716 0.000000 -0.000001 -0.047210 -0.064721 0.001565 -37.552913 80.749413 -15.944646 41.407397 0.000002 0.000001 21.158944 -0.000002 -0.000001 -0.006017 -0.081963 -0.000000 17.377963 -0.000002 -0.000002 0.006017 -0.081963 -0.000000 -17.377960 0.000001 -0.000001 0.036506 -0.002721 0.001565 43.257074 -61.770837 -64.947374 23.734303 0.000001 -0.000000 37.217721 0.000002 -0.000002 0.033945 -0.026202 0.001565 19.826729 -58.255189 -89.461360 46.172099 0.000001 -0.000001 65.729895 -0.000000 -0.000001 0.043952 -0.045754 0.001565 -9.020094 -25.791778 -90.211151 35.557060 -0.000000 0.000001 71.957716 -0.000000 -0.000002 0.047210 -0.064721 0.001565 37.552868 -80.749427 -15.944605 -41.407462 0.000002 -0.000001 -21.158823 0.000001 0.000001 0.000000 0.000000 0.000000 0.000000 -0.000000 0.000000 0.165452 -0.416230 0.000240 0.000000 -0.000000 0.000000 -0.165452 -0.416230 0.000240 0.000000 -0.000000 0.000000 0.260798 -0.104910 0.000240 0.000001 -0.000000 0.000000 -0.260798 -0.104910 0.000240 -0.000001 -0.000000 0.000000 0.255322 0.031764 0.000240 0.000000 -0.000000 0.000000 -0.255322 0.031764 0.000240 0.000000 -0.000000 0.000000 0.202216 0.368888 0.000240 20.160654 -0.000000 0.000000 -0.202216 0.368888 0.000240 -20.160654 -0.000000 0.000000 0.072792 -0.016441 0.200946 0.000000 -0.000000 0.000000 -0.072792 -0.016441 0.200946 0.000000 -0.000000 0.000000 0.080552 -0.033891 0.200946 0.000000 -0.000000 0.000000 -0.080552 -0.033891 0.200946 0.000000 -0.000000 0.000000 0.084345 -0.075934 0.200946 0.000000 -0.000000 0.000000 -0.084345 -0.075934 0.200946 0.000000 -0.000000 0.000000 0.077155 -0.105007 0.200946 0.000000 -0.000000 0.000000 -0.077155 -0.105007 0.200946 0.000000 -0.000000 0.000000 
-0.000000 -0.024174 0.058777 0.000000 -0.000000 0.000000 -0.036506 -0.002721 0.001565 -41.933318 63.011924 -63.834593 -24.947399 -0.000001 0.000002 -39.130997 0.000001 -0.000002 -0.033945 -0.026202 0.001565 -19.826755 58.255223 -89.461367 -46.172034 0.000002 -0.000000 -65.729841 0.000000 0.000000 -0.043952 -0.045754 0.001565 9.020093 25.791783 -90.211158 -35.557073 0.000000 0.000001 -71.957716 0.000000 -0.000001 -0.047210 -0.064721 0.001565 -37.255284 80.760512 -15.661112 41.344996 0.000000 -0.000002 21.094778 0.000002 -0.000001 -0.006017 -0.081963 -0.000000 17.377963 -0.000002 -0.000002 0.006017 -0.081963 -0.000000 -17.377960 0.000001 -0.000001 0.036506 -0.002721 0.001565 43.257074 -61.770837 -64.947374 23.734303 0.000001 -0.000000 37.217721 0.000002 -0.000002 0.033945 -0.026202 0.001565 19.537140 -58.610693 -89.906982 46.372220 -0.000002 -0.000001 66.056508 0.000000 0.000003 0.043952 -0.045754 0.001565 -9.980661 -26.221644 -90.575378 35.518640 0.000000 0.000000 71.885180 0.000000 0.000001 0.047210 -0.064721 0.001565 44.738641 -80.693105 -23.756238 -41.798763 -0.000002 -0.000000 -21.561924 0.000002 0.000002 0.000000 0.000000 0.000000 0.000000 -0.000000 0.000000 0.162388 -0.417054 0.005148 0.000000 -0.000000 0.000000 -0.165469 -0.416419 0.000326 0.000000 -0.000000 0.000000 0.260685 -0.109595 0.002029 0.000001 -0.000000 0.000000 -0.260798 -0.104910 0.000240 -0.000001 -0.000000 0.000000 0.255630 0.028688 0.001027 0.000000 -0.000000 0.000000 -0.255322 0.031764 0.000240 0.000000 -0.000000 0.000000 0.202216 0.368888 0.000240 20.160654 -0.000000 0.000000 -0.200496 0.363914 0.000276 -20.160654 -0.000000 0.000000 0.072792 -0.016441 0.200946 0.000000 -0.000000 0.000000 -0.072792 -0.016441 0.200946 0.000000 -0.000000 0.000000 0.080552 -0.033891 0.200946 0.000000 -0.000000 0.000000 -0.080552 -0.033891 0.200946 0.000000 -0.000000 0.000000 0.084345 -0.075934 0.200946 0.000000 -0.000000 0.000000 -0.084345 -0.075934 0.200946 0.000000 -0.000000 0.000000 0.077653 -0.110498 0.199589 0.000000 -0.000000 0.000000 -0.077155 -0.105007 0.200946 0.000000 -0.000000 0.000000 
-0.000000 -0.024174 0.058777 0.000000 -0.000000 0.000000 -0.036506 -0.002721 0.001565 -38.113770 66.041912 -60.558219 -27.996682 -0.000001 -0.000000 -43.965248 0.000001 0.000002 -0.033945 -0.026202 0.001565 -19.826755 58.255223 -89.461367 -46.172034 0.000002 -0.000000 -65.729841 0.000000 0.000000 -0.043952 -0.045754 0.001565 9.020093 25.791783 -90.211158 -35.557073 0.000000 0.000001 -71.957716 0.000000 -0.000001 -0.047210 -0.064721 0.001565 -36.439428 80.789704 -14.883578 41.174887 0.000000 -0.000000 20.920046 0.000001 -0.000000 -0.006017 -0.081963 -0.000000 17.377963 -0.000002 -0.000002 0.006017 -0.081963 -0.000000 -17.377960 0.000001 -0.000001 0.036506 -0.002721 0.001565 43.257074 -61.770837 -64.947374 23.734303 0.000001 -0.000000 37.217721 0.000002 -0.000002 0.033945 -0.026202 0.001565 18.793670 -59.532223 -91.180457 46.871114 0.000001 0.000000 66.870298 -0.000000 -0.000001 0.043952 -0.045754 0.001565 -12.551000 -27.269554 -91.570700 35.304705 0.000001 0.000001 71.481085 0.000000 0.000001 0.047210 -0.064721 0.001565 60.929058 -79.698213 -41.610783 -42.665706 -0.000001 -0.000002 -22.459755 -0.000001 0.000001 0.000000 0.000000 0.000000 0.000000 -0.000000 0.000000 0.154073 -0.419289 0.018468 0.000000 -0.000000 0.000000 -0.165518 -0.416931 0.000558 0.000000 -0.000000 0.000000 0.260376 -0.122311 0.006882 0.000001 -0.000000 0.000000 -0.260798 -0.104910 0.000240 -0.000001 -0.000000 0.000000 0.256466 0.020338 0.003163 0.000000 -0.000000 0.000000 -0.255322 0.031764 0.000240 0.000000 -0.000000 0.000000 0.202216 0.368888 0.000240 20.160654 -0.000000 0.000000 -0.195826 0.350412 0.000372 -20.160654 -0.000000 0.000000 0.072792 -0.016441 0.200946 0.000000 -0.000000 0.000000 -0.072792 -0.016441 0.200946 0.000000 -0.000000 0.000000 0.080552 -0.033891 0.200946 0.000000 -0.000000 0.000000 -0.080552 -0.033891 0.200946 0.000000 -0.000000 0.000000 0.084345 -0.075934 0.200946 0.000000 -0.000000 0.000000 -0.084345 -0.075934 0.200946 0.000000 -0.000000 0.000000 0.079006 -0.125404 0.195905 0.000000 -0.000000 0.000000 -0.077155 -0.105007 0.200946 0.000000 -0.000000 0.000000 
-0.000000 -0.024174 0.058777 0.000000 -0.000000 0.000000 -0.036506 -0.002721 0.001565 -31.705663 69.777206 -54.898369 -32.023451 -0.000001 -0.000001 -50.355061 -0.000003 0.000002 -0.033945 -0.026202 0.001565 -19.826755 58.255223 -89.461367 -46.172034 0.000002 -0.000000 -65.729841 0.000000 0.000000 -0.043952 -0.045754 0.001565 9.020093 25.791783 -90.211158 -35.557073 0.000000 0.000001 -71.957716 0.000000 -0.000001 -0.047210 -0.064721 0.001565 -35.215984 80.830091 -13.716673 40.922231 0.000001 -0.000001 20.661001 0.000002 -0.000001 -0.006017 -0.081963 -0.000000 17.377963 -0.000002 -0.000002 0.006017 -0.081963 -0.000000 -17.377960 0.000001 -0.000001 0.036506 -0.002721 0.001565 43.257074 -61.770837 -64.947374 23.734303 0.000001 -0.000000 37.217721 0.000002 -0.000002 0.033945 -0.026202 0.001565 17.811950 -60.771478 -93.223585 47.487669 0.000001 -0.000000 67.875073 0.000001 0.000000 0.043952 -0.045754 0.001565 -16.236985 -28.471126 -93.033501 34.698607 0.000003 -0.000000 70.334645 -0.000000 -0.000001 0.047210 -0.064721 0.001565 74.014921 -77.000513 -57.057443 -43.450996 -0.000001 -0.000001 -23.278637 -0.000000 0.000001 0.000000 0.000000 0.000000 0.000000 -0.000000 0.000000 0.141820 -0.422584 0.038098 0.000000 -0.000000 0.000000 -0.165590 -0.417685 0.000900 0.000000 -0.000000 0.000000 0.259922 -0.141051 0.014034 0.000001 -0.000000 0.000000 -0.260798 -0.104910 0.000240 -0.000001 -0.000000 0.000000 0.257698 0.008034 0.006310 0.000000 -0.000000 0.000000 -0.255322 0.031764 0.000240 0.000000 -0.000000 0.000000 0.202216 0.368888 0.000240 20.160654 -0.000000 0.000000 -0.188945 0.330514 0.000513 -20.160654 -0.000000 0.000000 0.072792 -0.016441 0.200946 0.000000 -0.000000 0.000000 -0.072792 -0.016441 0.200946 0.000000 -0.000000 0.000000 0.080552 -0.033891 0.200946 0.000000 -0.000000 0.000000 -0.080552 -0.033891 0.200946 0.000000 -0.000000 0.000000 0.084345 -0.075934 0.200946 0.000000 -0.000000 0.000000 -0.084345 -0.075934 0.200946 0.000000 -0.000000 0.000000 0.080999 -0.147370 0.190476 0.000000 -0.000000 0.000000 -0.077155 -0.105007 0.200946 0.000000 -0.000000 0.000000 
